<svg xmlns="http://www.w3.org/2000/svg" xmlns:xlink="http://www.w3.org/1999/xlink" width="500" zoomAndPan="magnify" viewBox="0 0 375 374.999991" height="500" preserveAspectRatio="xMidYMid meet" version="1.0"><defs><g/></defs><g fill="#ffffff" fill-opacity="1"><g transform="translate(234.273679, 241.080437)"><g><path d="M 66.140625 -58.21875 C 72.554688 -55.738281 77.628906 -52.191406 81.359375 -47.578125 C 85.085938 -42.972656 86.953125 -37.617188 86.953125 -31.515625 C 86.953125 -24.378906 85.21875 -18.453125 81.75 -13.734375 C 78.28125 -9.023438 73.722656 -5.554688 68.078125 -3.328125 C 62.441406 -1.109375 56.257812 0 49.53125 0 L 16.140625 0 L 16.140625 -112.25 L 45.1875 -112.25 C 56.675781 -112.25 65.578125 -109.894531 71.890625 -105.1875 C 78.203125 -100.476562 81.359375 -93.414062 81.359375 -84 C 81.359375 -78.101562 80.035156 -72.953125 77.390625 -68.546875 C 74.753906 -64.148438 71.003906 -60.707031 66.140625 -58.21875 Z M 31.203125 -63.1875 L 48.28125 -63.1875 C 54.082031 -63.1875 58.457031 -64.84375 61.40625 -68.15625 C 64.351562 -71.46875 65.828125 -75.710938 65.828125 -80.890625 C 65.828125 -86.585938 64.066406 -90.832031 60.546875 -93.625 C 57.035156 -96.414062 52.117188 -97.8125 45.796875 -97.8125 L 31.203125 -97.8125 Z M 48.90625 -13.96875 C 55.425781 -13.96875 60.804688 -15.441406 65.046875 -18.390625 C 69.296875 -21.347656 71.421875 -25.671875 71.421875 -31.359375 C 71.421875 -37.265625 69.117188 -41.613281 64.515625 -44.40625 C 59.910156 -47.195312 54.347656 -48.59375 47.828125 -48.59375 L 31.203125 -48.59375 L 31.203125 -13.96875 Z M 48.90625 -13.96875 "/></g></g></g><g fill="#ffffff" fill-opacity="1"><g transform="translate(33.56097, 241.080437)"><g><path d="M 104.1875 -9.625 C 100.769531 -6.9375 95.410156 -4.453125 88.109375 -2.171875 C 80.816406 0.0976562 74.0625 1.234375 67.84375 1.234375 C 56.15625 1.234375 45.859375 -1.171875 36.953125 -5.984375 C 28.046875 -10.796875 21.1875 -17.390625 16.375 -25.765625 C 11.5625 -34.148438 9.15625 -43.570312 9.15625 -54.03125 C 9.15625 -66.25 11.742188 -76.832031 16.921875 -85.78125 C 22.097656 -94.738281 29.082031 -101.597656 37.875 -106.359375 C 46.675781 -111.117188 56.304688 -113.5 66.765625 -113.5 C 73.078125 -113.5 79.023438 -112.75 84.609375 -111.25 C 90.203125 -109.75 95.226562 -107.753906 99.6875 -105.265625 L 94.71875 -91.453125 C 91.40625 -93.316406 87.238281 -94.945312 82.21875 -96.34375 C 77.195312 -97.738281 72.664062 -98.4375 68.625 -98.4375 C 59.925781 -98.4375 52.238281 -96.675781 45.5625 -93.15625 C 38.894531 -89.632812 33.75 -84.613281 30.125 -78.09375 C 26.5 -71.570312 24.6875 -63.96875 24.6875 -55.28125 C 24.6875 -47.195312 26.5 -40 30.125 -33.6875 C 33.75 -27.375 38.875 -22.484375 45.5 -19.015625 C 52.125 -15.546875 59.675781 -13.8125 68.15625 -13.8125 C 72.09375 -13.8125 75.921875 -14.195312 79.640625 -14.96875 C 83.367188 -15.75 86.476562 -16.867188 88.96875 -18.328125 L 88.96875 -40.53125 L 66.609375 -40.53125 L 66.609375 -54.96875 L 104.1875 -54.96875 Z M 104.1875 -9.625 "/></g></g></g><path stroke-linecap="butt" transform="matrix(0, -0.75, 0.75, 0, 184.429754, 312.679667)" fill="none" stroke-linejoin="miter" d="M -0.0000277768 2.999912 L 333.812494 2.999912 " stroke="#ffffff" stroke-width="6" stroke-opacity="1" stroke-miterlimit="4"/></svg>